<?xml version="1.0" encoding="utf-8"?>
<!-- Generator: Adobe Illustrator 16.0.0, SVG Export Plug-In . SVG Version: 6.00 Build 0)  -->
<!DOCTYPE svg PUBLIC "-//W3C//DTD SVG 1.1//EN" "http://www.w3.org/Graphics/SVG/1.1/DTD/svg11.dtd">
<svg version="1.1" id="Data_Management" xmlns="http://www.w3.org/2000/svg" xmlns:xlink="http://www.w3.org/1999/xlink" x="0px"
	 y="0px" width="512px" height="512px" viewBox="0 0 512 512" enable-background="new 0 0 512 512" xml:space="preserve">
<circle id="Background_32_" fill="#43B8C8" cx="256" cy="256" r="256"/>
<path id="Shadow_33_" opacity="0.1" d="M510.745,281.423l-160.176-160.11l-1.069,1.932l-13-12.994L128.307,402.348l108.549,108.94
	C243.177,511.756,249.56,512,256,512C388.805,512,497.981,410.872,510.745,281.423z"/>
<g id="Data_Management_1_">
	<polygon fill="#CDA033" points="336.5,121.101 336.5,109.786 286.558,109.786 286.558,121.101 128.069,121.101 128.069,376.175 
		350.705,376.175 350.705,121.101 	"/>
	<rect x="226.748" y="143.951" fill="#E6E7E8" width="117.372" height="251.885"/>
	<rect x="128.069" y="131.673" fill="#F7D33E" width="205" height="270.541"/>
	<rect x="226.748" y="143.951" fill="#E6E7E8" width="97.417" height="32.159"/>
	<rect x="258.104" y="148.253" fill="#C4C6C8" width="60.886" height="3.582"/>
	<rect x="258.104" y="158.24" fill="#C4C6C8" width="60.886" height="3.582"/>
	<rect x="258.104" y="168.226" fill="#C4C6C8" width="60.886" height="3.582"/>
	<g>
		<g>
			<path fill="#42536C" d="M383.931,392.571c0,3.374-2.734,6.106-6.106,6.106l0,0c-3.372,0-6.106-2.732-6.106-6.106v-17.5
				c0-3.372,2.734-6.105,6.106-6.105l0,0c3.372,0,6.106,2.733,6.106,6.105V392.571z"/>
			<rect x="371.718" y="178.82" fill="#F6D573" width="12.213" height="207.716"/>
			<polygon fill="#E6E7E8" points="377.824,162.035 371.718,178.82 383.931,178.82 			"/>
			<polygon fill="#42536C" points="377.824,162.035 375.7,167.872 379.947,167.872 			"/>
		</g>
		<path opacity="0.1" fill="#231F20" d="M379.947,167.872l-2.123-5.836v236.643c3.372,0,6.106-2.732,6.106-6.106v-6.035v-11.465
			V178.82L379.947,167.872z"/>
	</g>
</g>
</svg>
