<svg width="39" height="69" viewBox="0 0 39 69" fill="none" xmlns="http://www.w3.org/2000/svg">
<path fill-rule="evenodd" clip-rule="evenodd" d="M31.3284 0.500743C30.9473 0.776227 30.4719 1.09913 30.2725 1.21831C30.0727 1.33718 29.7669 1.56119 29.5923 1.71562C29.4181 1.87005 29.2115 1.99641 29.133 1.99641C29.0546 1.99641 28.846 2.15084 28.6696 2.33959C28.4932 2.52835 28.141 2.85125 27.8865 3.05716C27.6323 3.26308 27.241 3.58598 27.017 3.77473C26.793 3.96349 26.5372 4.11792 26.4481 4.11792C26.3592 4.11792 26.163 4.25831 26.0124 4.42991C25.8618 4.6015 25.693 4.74189 25.6375 4.74189C25.5821 4.74189 25.3323 4.93844 25.0825 5.17867C24.8326 5.4189 24.5765 5.61546 24.5132 5.61546C24.4499 5.61546 24.3954 5.68565 24.3926 5.77145C24.3897 5.85725 24.0199 6.15207 23.5707 6.42662C23.1214 6.70117 22.5711 7.08148 22.3474 7.27179C22.1238 7.46211 21.7706 7.76286 21.5627 7.94007C20.5086 8.83797 20.2875 8.99958 20.0229 9.06541C19.8647 9.10472 19.7356 9.2058 19.7356 9.29035C19.7356 9.3749 19.5948 9.50749 19.4224 9.58549C19.2501 9.66317 18.839 9.9814 18.5089 10.2925C17.607 11.1426 16.8364 11.7304 16.6241 11.7304C16.5198 11.7304 16.281 11.8848 16.0936 12.0736C15.3177 12.8548 13.2807 14.4759 13.0753 14.4759C13.0171 14.4759 12.6633 14.7545 12.2887 15.0952C11.2262 16.0614 10.5293 16.5974 10.3353 16.5974C10.2373 16.5974 10.0338 16.7378 9.88322 16.9094C9.73263 17.081 9.54425 17.2214 9.46424 17.2214C9.38454 17.2214 9.2434 17.3618 9.15079 17.5334C9.05817 17.705 8.93248 17.8453 8.87168 17.8453C8.81088 17.8453 8.608 17.9985 8.42056 18.186C8.01418 18.5922 6.93996 19.3429 6.7648 19.3429C6.69676 19.3429 6.48254 19.4833 6.28912 19.6552C5.50408 20.3522 5.03942 20.6819 4.74046 20.7549C4.5672 20.7971 4.14192 21.0916 3.79539 21.4089C3.44886 21.7265 3.02359 22.0594 2.85001 22.1492C2.67675 22.2391 2.42693 22.4306 2.29493 22.5748C2.16294 22.7192 1.94936 22.8371 1.81988 22.8371C1.69072 22.8371 1.52565 22.9657 1.45319 23.1229C1.38105 23.2802 1.19834 23.4627 1.04713 23.5285C0.896232 23.5943 0.752584 23.7606 0.727697 23.8979C0.703125 24.0352 0.575855 24.2626 0.44512 24.4036C-0.123182 25.0151 -0.15626 27.6374 0.397551 28.1668C0.556008 28.3184 0.722653 28.6092 0.768017 28.8129C0.813065 29.0167 0.988218 29.2731 1.15707 29.3826C1.32592 29.4921 1.46422 29.6668 1.46422 29.7704C1.46422 29.8743 1.70616 30.0618 2.00165 30.1876C2.29714 30.313 2.61469 30.5061 2.7073 30.6165C2.79992 30.727 3.0825 30.8552 3.33546 30.9011C3.58842 30.9472 3.95574 31.117 4.15168 31.2789C4.34983 31.4424 4.67367 31.5728 4.88222 31.5728C5.11313 31.5728 5.36295 31.6857 5.534 31.867C5.71042 32.0542 6.02576 32.1927 6.39969 32.2476C6.72322 32.295 7.05683 32.4158 7.14094 32.5162C7.22474 32.6164 7.61221 32.7886 8.00158 32.8984C8.39127 33.0085 8.82695 33.2045 8.96997 33.3339C9.11299 33.4634 9.31712 33.5695 9.4236 33.5695C9.80005 33.5695 10.4109 33.8459 10.4109 34.0163C10.4109 34.1879 10.5457 34.235 11.4571 34.3803C11.7207 34.4225 11.9668 34.5354 12.0036 34.6312C12.0676 34.7959 12.462 34.9563 13.1913 35.1148C13.3693 35.1535 13.6471 35.2988 13.809 35.438C13.9713 35.5771 14.2573 35.691 14.4451 35.691C14.6347 35.691 14.9979 35.8573 15.2622 36.0654C15.524 36.2713 15.8891 36.4398 16.0741 36.4398C16.259 36.4398 16.5948 36.5746 16.8203 36.7393C17.0456 36.904 17.4394 37.0769 17.6952 37.1236C17.951 37.1704 18.2739 37.3105 18.4125 37.4347C18.5511 37.5592 18.863 37.7002 19.1055 37.7482C19.3481 37.7966 19.745 37.9657 19.9876 38.1245C20.2302 38.2833 20.6271 38.4524 20.8697 38.5008C21.1122 38.5488 21.4329 38.6992 21.5822 38.8349C21.7316 38.9706 22.0863 39.1335 22.3707 39.1968C22.6549 39.2598 22.992 39.4152 23.1196 39.5415C23.2471 39.6679 23.5952 39.8099 23.8932 39.857C24.1913 39.9044 24.5929 40.0744 24.7857 40.2348C24.9782 40.3955 25.3502 40.5667 25.612 40.6154C25.8735 40.6641 26.2506 40.8394 26.4497 41.0054C26.6488 41.1711 26.9446 41.3068 27.1071 41.3068C27.2697 41.3068 27.563 41.4384 27.7589 41.5994C27.9548 41.7604 28.3051 41.9286 28.5373 41.9732C28.7695 42.0178 29.1283 42.195 29.3346 42.3669C29.5479 42.5447 29.8686 42.6795 30.0787 42.6795C30.315 42.6795 30.5462 42.7912 30.7204 42.9899C30.8704 43.1603 31.1958 43.3363 31.444 43.3806C32.0552 43.4891 32.2105 43.637 32.2105 44.1087C32.2105 44.6634 28.9894 47.9209 28.4409 47.9209C28.3297 47.9209 28.1681 48.0332 28.0815 48.1705C27.9948 48.3078 27.8559 48.4201 27.7724 48.4201C27.689 48.4201 27.4766 48.5623 27.3009 48.7361C26.684 49.3454 26.0946 49.7585 25.6265 49.9095C25.3666 49.9931 25.154 50.1089 25.154 50.1663C25.154 50.2833 24.0296 51.0099 23.4626 51.2592C23.26 51.3484 23.0209 51.5247 22.9318 51.651C22.8423 51.7774 22.5465 51.9162 22.274 51.9593C22 52.0026 21.7457 52.1243 21.7038 52.2319C21.6626 52.3389 21.3803 52.5352 21.0769 52.6681C20.7733 52.801 20.4538 52.9947 20.3669 53.0983C20.2799 53.2022 20.0994 53.2871 19.9662 53.2871C19.8326 53.2871 19.5982 53.4212 19.4448 53.585C19.2914 53.7488 18.9603 53.9391 18.7089 54.0078C18.4572 54.0767 18.1318 54.2514 17.9856 54.3962C17.8391 54.5413 17.5903 54.6598 17.4324 54.6598C17.2746 54.6598 16.9593 54.8283 16.7315 55.0342C16.47 55.2707 16.1827 55.4086 15.9506 55.4086C15.7008 55.4086 15.519 55.5053 15.3829 55.7109C15.2531 55.9071 15.0127 56.0419 14.6983 56.0943C14.4318 56.139 14.113 56.2856 13.9902 56.42C13.8673 56.5545 13.5255 56.7245 13.2307 56.7982C12.9358 56.8718 12.5965 57.0393 12.4765 57.1704C12.3565 57.3017 12.0433 57.4431 11.78 57.4849C11.4713 57.5338 11.2321 57.6658 11.1055 57.8574C10.9735 58.0567 10.7895 58.1541 10.5435 58.1541C10.3425 58.1541 10.018 58.2839 9.8221 58.4424C9.62616 58.6008 9.23395 58.7971 8.95075 58.8782C8.66754 58.9593 8.33267 59.1384 8.20666 59.2763C8.08065 59.4139 7.82076 59.5268 7.62891 59.5268C7.43706 59.5268 7.1192 59.661 6.92263 59.8248C6.72605 59.9886 6.35401 60.1801 6.09569 60.2509C5.83769 60.3214 5.47604 60.4962 5.29238 60.6394C5.10872 60.7826 4.81449 60.8996 4.6384 60.8996C4.152 60.8996 2.90829 62.2374 2.80622 62.8704C2.76337 63.1362 2.61374 63.4557 2.47418 63.5811C2.11159 63.9059 2.11096 65.2209 2.47355 65.6773C2.61248 65.8524 2.76148 66.183 2.80464 66.4117C2.84748 66.6401 3.00279 66.9452 3.14991 67.0897C3.29703 67.2338 3.60291 67.5567 3.83004 67.8073C4.05686 68.0575 4.30069 68.2624 4.37157 68.2624C4.44245 68.2624 4.64501 68.4169 4.82174 68.6056C5.28009 69.0954 8.32322 69.1435 8.77055 68.668C8.91578 68.5136 9.1048 68.3872 9.19048 68.3872C9.27648 68.3872 9.53291 68.2188 9.76067 68.0129C9.98812 67.8069 10.2871 67.6385 10.4247 67.6385C10.5624 67.6385 10.7999 67.5062 10.9524 67.3443C11.1052 67.1827 11.4042 66.9618 11.6171 66.8535C11.8301 66.7453 12.078 66.5687 12.1681 66.461C12.2582 66.3537 12.4648 66.2657 12.6271 66.2657C12.7975 66.2657 12.9818 66.1556 13.0634 66.0043C13.1412 65.8608 13.449 65.6361 13.7473 65.5054C14.0459 65.3744 14.3228 65.1831 14.3628 65.0802C14.4025 64.9772 14.5169 64.893 14.6164 64.893C14.716 64.893 15.0307 64.6999 15.3161 64.4637C15.6015 64.2275 15.9471 63.9991 16.0841 63.9561C16.2212 63.913 16.3333 63.8322 16.3333 63.7767C16.3333 63.7209 16.5176 63.6011 16.7428 63.51C16.9681 63.4192 17.3026 63.1877 17.4863 62.9958C17.6703 62.8039 17.9025 62.6467 18.0023 62.6467C18.1025 62.6467 18.2871 62.5344 18.4125 62.3971C18.5379 62.2598 18.7174 62.1475 18.8113 62.1475C18.9052 62.1475 19.1597 61.979 19.3774 61.7731C19.5951 61.5672 19.8134 61.3987 19.8628 61.3987C19.9123 61.3987 20.1668 61.2303 20.4286 61.0244C20.6904 60.8184 20.9872 60.65 21.0886 60.65C21.1897 60.65 21.4329 60.4955 21.6289 60.3068C22.423 59.5415 22.7825 59.2772 23.0295 59.2772C23.1722 59.2772 23.4447 59.1228 23.6356 58.934C24.356 58.2208 25.8004 57.1557 26.0471 57.1557C26.1072 57.1557 26.4522 56.8762 26.8141 56.5342C27.1758 56.1926 27.659 55.8248 27.8881 55.7171C28.1171 55.6098 28.3042 55.4719 28.3042 55.4111C28.3042 55.3502 28.4318 55.2626 28.5877 55.2158C28.7437 55.1693 29.013 54.993 29.1863 54.8239C30.086 53.9469 31.0588 53.1401 31.4229 52.9688C31.6482 52.8628 31.8325 52.7214 31.8325 52.6547C31.8325 52.5876 31.9862 52.4641 32.1743 52.3795C32.4357 52.2625 35.2502 49.6624 36.0538 48.7957C36.1231 48.7211 36.4693 48.3674 36.8231 48.0095C37.1768 47.652 37.5092 47.2189 37.5621 47.0473C37.6147 46.8757 37.7697 46.6143 37.9061 46.4664C38.0425 46.3185 38.2098 45.9535 38.2772 45.6553C38.3449 45.357 38.5245 44.9823 38.676 44.8222C39.1397 44.3337 39.0937 41.2725 38.6143 40.7078C38.4284 40.4887 38.2416 40.2011 38.1991 40.0685C38.1566 39.9359 37.913 39.7053 37.6579 39.5562C37.4027 39.4074 37.1201 39.1809 37.0297 39.053C36.9396 38.9254 36.6737 38.7853 36.439 38.7416C36.2044 38.6979 35.8978 38.5563 35.7577 38.4271C35.6172 38.2977 35.2665 38.1392 34.9786 38.0752C34.6904 38.0109 34.3325 37.8471 34.1832 37.7114C34.0257 37.5679 33.6312 37.4272 33.2431 37.376C32.8166 37.3199 32.4868 37.1948 32.3327 37.031C32.1711 36.8591 31.8375 36.7393 31.3281 36.6703C30.8868 36.6107 30.4127 36.4551 30.2025 36.3013C29.9631 36.1259 29.552 36.0061 28.9928 35.9487C28.3738 35.8854 28.0985 35.7977 27.97 35.6236C27.8348 35.4405 27.5749 35.3675 26.8504 35.3088C26.1195 35.2495 25.8398 35.17 25.6104 34.9566C25.3805 34.7426 25.1061 34.6652 24.3834 34.6103C23.7124 34.5591 23.33 34.4596 23.0118 34.2531C22.7078 34.0556 22.2869 33.9395 21.6582 33.8802C21.0458 33.8222 20.6422 33.7136 20.4318 33.5495C20.2308 33.3932 19.809 33.2725 19.2605 33.2145C18.6497 33.1499 18.329 33.05 18.1438 32.8666C17.9576 32.6822 17.6419 32.5849 17.0261 32.5225C16.4927 32.4685 16.0359 32.3425 15.8201 32.1902C15.6289 32.0554 15.2071 31.9091 14.8823 31.8651C14.5421 31.8189 14.1423 31.6608 13.9398 31.4917C13.746 31.3304 13.454 31.1981 13.2908 31.1978C12.8057 31.1965 12.0789 30.9566 12.0081 30.7738C11.9718 30.6805 11.6603 30.537 11.3156 30.4549C10.9663 30.3719 10.5621 30.1723 10.4021 30.0035C10.2442 29.8372 10.0398 29.7009 9.9478 29.7009C9.85612 29.7009 9.67593 29.6026 9.54772 29.4825C9.4195 29.3624 9.09345 29.1421 8.82317 28.993C8.22462 28.6626 8.18272 28.1893 8.69589 27.5503C8.87609 27.326 9.15142 26.9769 9.30767 26.7744C9.46392 26.5719 9.74776 26.2646 9.93835 26.0915C10.1289 25.9183 10.2849 25.7208 10.2849 25.6528C10.2849 25.5096 10.431 25.3468 11.6653 24.1163C12.1643 23.6187 12.6261 23.2115 12.6916 23.2115C12.7569 23.2115 13.1229 22.9167 13.5047 22.5564C14.7758 21.3568 14.9819 21.1898 15.3438 21.0651C15.5413 20.9967 15.7033 20.8916 15.7033 20.8314C15.7033 20.7712 15.8712 20.6361 16.0763 20.5309C16.2813 20.4261 16.5904 20.214 16.7633 20.0598C17.4409 19.4555 17.9232 19.1276 18.2512 19.0484C18.4399 19.0028 18.6544 18.854 18.7284 18.7174C18.8022 18.581 18.9313 18.4678 19.0154 18.4659C19.0995 18.464 19.3912 18.2955 19.6634 18.0915C19.9356 17.8875 20.2491 17.7206 20.3599 17.7206C20.4708 17.7206 20.7109 17.5521 20.8933 17.3462C21.1264 17.0828 21.3397 16.9718 21.6115 16.9718C21.8847 16.9718 22.0585 16.8804 22.2044 16.6598C22.3178 16.4882 22.475 16.3462 22.5538 16.3444C22.6325 16.3425 22.9195 16.174 23.1917 15.97C23.4639 15.766 23.7906 15.599 23.9172 15.599C24.0438 15.599 24.27 15.4593 24.42 15.2886C24.5699 15.1183 24.8827 14.9432 25.1152 14.8999C25.3477 14.8568 25.6076 14.7236 25.6927 14.6041C25.7774 14.4846 26.0842 14.2675 26.3741 14.1212C26.6639 13.9752 26.9338 13.8029 26.9739 13.7384C27.0142 13.6741 27.2085 13.5864 27.4064 13.5434C27.6039 13.5003 27.8865 13.3275 28.0339 13.1593C28.1832 12.9893 28.4406 12.8536 28.6132 12.8536C28.7843 12.8536 29.054 12.7178 29.2127 12.5516C29.3715 12.3856 29.7363 12.1884 30.0239 12.1135C30.3112 12.0386 30.578 11.8954 30.6168 11.7953C30.6559 11.6955 30.8883 11.5304 31.1341 11.4287C31.3795 11.327 31.5804 11.1897 31.5804 11.123C31.5804 11.0565 31.8356 10.9058 32.1475 10.7879C32.4594 10.67 32.7145 10.5367 32.7145 10.4918C32.7145 10.3776 34.2298 9.40953 34.5732 9.30439C34.7291 9.25666 34.8567 9.13873 34.8567 9.04201C34.8567 8.94561 35.0126 8.78368 35.2032 8.68198C35.3938 8.58058 35.8786 8.14411 36.2809 7.7117C36.6829 7.2796 37.1359 6.7957 37.2868 6.63628C37.547 6.36267 37.5618 6.23257 37.564 4.22805L37.5659 2.10935L36.6838 1.29881C36.1987 0.852976 35.6824 0.378132 35.5365 0.243978C35.3015 0.027771 35.0851 -0.000309442 33.6464 2.54528e-06H32.0215L31.3284 0.500743Z" fill="#fe5900"/>
</svg>
